<?xml version="1.0" encoding="iso-8859-1"?>
<!-- Generator: Adobe Illustrator 16.0.0, SVG Export Plug-In . SVG Version: 6.00 Build 0)  -->
<!DOCTYPE svg PUBLIC "-//W3C//DTD SVG 1.1//EN" "http://www.w3.org/Graphics/SVG/1.1/DTD/svg11.dtd">
<svg version="1.1" id="Capa_1" xmlns="http://www.w3.org/2000/svg" xmlns:xlink="http://www.w3.org/1999/xlink" x="0px" y="0px"
	 width="35.124px" height="35.125px" viewBox="0 0 35.124 35.125" style="enable-background:new 0 0 35.124 35.125;"
	 xml:space="preserve">
<g>
	<path d="M33.125,4.125H2c-1.1,0-2,0.9-2,2V29c0,1.1,0.9,2,2,2h3.832v-1.562c-0.157,0.057-0.323,0.092-0.5,0.092
		c-0.829,0-1.5-0.672-1.5-1.5l0.001-9.475c0-0.831,0.672-1.5,1.5-1.5h3.232l0.565,0.754l-1.038,5.879l1.406,1.326l1.406-1.326
		l-1.038-5.879l0.565-0.754h3.009l7.242-2.237c0.795-0.243,1.633,0.199,1.877,0.99c0.244,0.792-0.199,1.631-0.99,1.876l-7.458,2.303
		c-0.144,0.045-0.293,0.068-0.443,0.068h-0.51c0.001,0.026,0.008,0.055,0.008,0.084v10.86h19.959c1.101,0,2-0.899,2-2V6.125
		C35.125,5.023,34.227,4.125,33.125,4.125z M9.5,16.034c-1.885,0-3.412-2.344-3.412-4.494c0-2.151,1.527-3.291,3.412-3.291
		c1.885,0,3.412,1.14,3.412,3.291C12.912,13.688,11.384,16.034,9.5,16.034z M22.516,11.914c0.023-2.704,2.223-4.888,4.932-4.888
		c0.08,0,0.156,0.008,0.236,0.012v4.876H22.516z M28.175,17.596c-2.727,0-4.937-2.209-4.937-4.935c0-0.016,0.004-0.032,0.004-0.047
		h5.168V7.736c2.613,0.124,4.699,2.278,4.699,4.924C33.111,15.387,30.9,17.596,28.175,17.596z"/>
</g>
<g>
</g>
<g>
</g>
<g>
</g>
<g>
</g>
<g>
</g>
<g>
</g>
<g>
</g>
<g>
</g>
<g>
</g>
<g>
</g>
<g>
</g>
<g>
</g>
<g>
</g>
<g>
</g>
<g>
</g>
</svg>
